# xmcd CD database file
#
# Track frame offsets:
#	150
#	25990
#	49300
#	72090
#	97287
#	116622
#	138067
#	165312
#	187512
#	202812
#	230080
#	248170
#
# Disc length: 3464 seconds
#
# Revision: 1
# Processed by: cddbd v1.4PL0 Copyright (c) Steve Scherf et al.
# Submitted via: CDex 1.50Beta7
#
DISCID=9a0d860c
DTITLE=Little Hatch - Goin' Back
DYEAR=1998
DGENRE=Blues
TTITLE0=Rock Me, Baby
TTITLE1=Woke Up This Morning
TTITLE2=She's Nineteen Years Old
TTITLE3=Fannie Mae
TTITLE4=The Sky is Crying
TTITLE5=Baby, Scratch My Back
TTITLE6=You Don't Have to Go
TTITLE7=Buzz On
TTITLE8=Long as My Right Arm
TTITLE9=Your Friends
TTITLE10=I Got a Woman
TTITLE11=Glory, Glory
EXTD=YEAR: 1998
EXTT0=
EXTT1=
EXTT2=
EXTT3=
EXTT4=
EXTT5=
EXTT6=
EXTT7=
EXTT8=
EXTT9=
EXTT10=
EXTT11=
PLAYORDER=
